<?xml version="1.0" standalone="no"?>
<!DOCTYPE svg PUBLIC "-//W3C//DTD SVG 20010904//EN"
 "http://www.w3.org/TR/2001/REC-SVG-20010904/DTD/svg10.dtd">
<svg version="1.0" xmlns="http://www.w3.org/2000/svg"
 width="1536.000000pt" height="1024.000000pt" viewBox="0 0 1536.000000 1024.000000"
 preserveAspectRatio="xMidYMid meet">
<metadata>
Created by potrace 1.16, written by Peter Selinger 2001-2019
</metadata>
<g transform="translate(0.000000,1024.000000) scale(0.100000,-0.100000)"
fill="#000000" stroke="none">
<path d="M7565 8467 c-24 -13 -28 -64 -9 -115 27 -72 49 -92 104 -92 55 0 76
18 92 77 32 122 22 137 -92 138 -45 0 -87 -3 -95 -8z m178 -56 c17 -17 4 -21
-44 -13 -24 5 -61 4 -82 -1 -45 -11 -60 -2 -32 20 23 17 139 13 158 -6z"/>
<path d="M7372 8367 c-31 -33 -28 -47 12 -47 29 0 36 -4 45 -31 21 -60 14 -93
-29 -141 -51 -59 -63 -110 -44 -187 18 -67 37 -99 67 -110 21 -8 24 -20 35
-119 12 -104 11 -114 -9 -166 -11 -31 -25 -56 -30 -56 -5 0 -9 -4 -9 -8 0 -5
14 -7 30 -4 24 3 36 14 52 45 18 36 20 52 14 137 -3 52 -9 114 -12 138 -5 33
-3 42 9 42 18 0 24 -31 33 -165 5 -81 3 -108 -10 -139 -9 -21 -16 -40 -16 -42
0 -2 25 -4 55 -4 30 0 55 1 55 3 0 1 -6 20 -14 41 -8 24 -12 62 -9 100 4 43
-1 84 -15 136 -11 41 -23 91 -26 111 -3 20 -18 47 -33 60 -14 13 -34 43 -45
66 -23 52 -14 102 31 175 17 27 31 61 31 76 0 30 -26 74 -56 97 -30 23 -87 19
-112 -8z"/>
<path d="M7836 8375 c-55 -42 -71 -113 -36 -158 12 -14 30 -47 41 -73 27 -61
19 -103 -30 -157 -34 -38 -40 -53 -59 -152 -12 -60 -23 -158 -25 -216 l-2
-107 49 -6 c27 -3 52 -4 54 -1 3 2 -4 21 -14 42 -15 31 -18 57 -17 138 3 119
11 175 25 175 7 0 8 -44 3 -134 -7 -128 -6 -137 16 -180 18 -37 28 -46 49 -46
l27 0 -30 59 -29 59 13 109 c11 99 15 110 41 131 36 30 63 118 54 176 -4 22
-22 64 -41 91 -29 43 -35 61 -37 113 -3 67 6 82 49 82 32 0 36 14 12 44 -24
30 -81 36 -113 11z"/>
<path d="M7291 8276 c-41 -42 -38 -66 17 -119 27 -26 44 -36 56 -31 17 7 56
73 56 96 0 21 -60 88 -79 88 -9 0 -32 -15 -50 -34z m39 -38 c0 -16 -3 -19 -11
-11 -6 6 -8 16 -5 22 11 17 16 13 16 -11z"/>
<path d="M7930 8270 c-35 -45 -35 -68 1 -113 28 -36 51 -34 94 10 50 51 46 86
-15 127 -35 23 -45 21 -80 -24z m70 -30 c0 -11 -4 -20 -10 -20 -5 0 -10 9 -10
20 0 11 5 20 10 20 6 0 10 -9 10 -20z"/>
<path d="M7545 8229 c-4 -18 -16 -50 -26 -73 -10 -22 -19 -62 -19 -88 0 -41 5
-53 41 -95 65 -74 72 -100 76 -256 3 -180 32 -243 76 -168 14 24 17 54 17 163
0 73 5 150 11 171 5 21 29 59 53 86 61 69 63 87 24 198 -25 73 -36 92 -48 87
-78 -34 -97 -36 -145 -15 -26 12 -49 21 -50 21 -2 0 -7 -14 -10 -31z"/>
<path d="M7431 7469 c-87 -10 -104 -15 -84 -27 6 -4 14 -33 18 -64 l7 -58 293
0 c222 0 295 3 303 13 5 6 13 37 16 68 l7 57 -38 6 c-73 11 -438 15 -522 5z"/>
<path d="M7669 7282 l-246 -2 -7 -40 -6 -40 -48 0 c-46 0 -94 -21 -80 -35 8
-8 788 -12 788 -4 0 19 -41 39 -82 39 -48 0 -58 9 -58 55 0 13 -3 25 -7 27 -5
2 -119 2 -254 0z"/>
<path d="M7290 7071 l0 -59 233 -4 c127 -2 300 -1 382 2 l150 5 3 58 3 57
-386 0 -385 0 0 -59z"/>
<path d="M11145 7017 c-4 -45 -5 -95 -3 -112 l3 -30 100 -5 100 -5 3 -27 3
-28 90 0 89 0 0 -35 0 -35 85 0 c82 0 85 -1 85 -23 0 -22 2 -23 58 -16 52 6
326 100 346 119 12 12 -158 63 -609 184 -154 42 -294 80 -312 85 l-31 9 -7
-81z"/>
<path d="M4055 7035 c-99 -30 -301 -89 -448 -131 -147 -43 -264 -80 -260 -84
13 -11 319 -120 337 -120 9 0 16 7 16 15 0 12 16 15 80 15 78 0 80 1 80 24 0
28 28 36 126 36 l64 0 0 34 c0 41 13 46 123 46 l77 0 0 110 c0 61 -3 110 -7
109 -5 0 -89 -25 -188 -54z"/>
<path d="M7165 7065 c-134 -26 -175 -36 -175 -45 0 -13 36 -18 160 -26 l115
-7 -3 47 c-2 27 -9 46 -16 45 -6 0 -42 -7 -81 -14z"/>
<path d="M4330 6980 l0 -90 115 0 115 0 0 55 0 55 548 -2 547 -3 -4 -59 -3
-60 28 19 c16 10 46 29 67 43 21 14 37 33 37 43 0 18 19 19 508 19 280 0 511
2 514 5 2 3 3 18 0 35 l-4 30 -1234 0 -1234 0 0 -90z"/>
<path d="M8100 7029 l0 -42 103 7 c120 8 177 16 177 25 0 9 -199 51 -242 51
-38 0 -38 0 -38 -41z"/>
<path d="M8530 7035 l0 -35 530 0 c498 0 530 -1 530 -17 0 -11 28 -36 73 -63
l72 -46 0 61 0 60 552 3 552 2 3 -52 3 -53 119 -3 119 -3 -7 32 c-3 17 -6 58
-6 90 l0 59 -1270 0 -1270 0 0 -35z"/>
<path d="M6928 6951 c2 -17 10 -36 18 -42 11 -9 14 -50 14 -195 0 -175 -1
-184 -19 -184 -27 0 -29 6 -33 83 -2 64 -4 67 -28 67 -64 0 -336 -55 -345 -70
-8 -13 8 -20 129 -57 135 -41 287 -60 576 -73 413 -19 1002 -7 1245 25 173 22
355 76 355 104 0 6 -24 17 -52 26 -61 18 -285 51 -293 43 -3 -3 -6 -35 -7 -72
-2 -43 -6 -66 -14 -66 -7 0 -19 -3 -28 -6 -14 -5 -16 15 -16 184 0 156 3 192
15 202 8 7 15 24 15 37 0 23 -3 25 -32 19 -189 -35 -1246 -35 -1466 0 -39 6
-39 6 -34 -25z m140 -248 l2 -183 -30 0 -30 0 0 186 0 185 28 -3 27 -3 3 -182z
m1302 2 l0 -185 -35 0 -35 0 0 179 c0 189 0 189 48 190 l22 1 0 -185z m-1212
169 c22 -6 22 -8 22 -186 l0 -179 -27 3 -28 3 -3 183 c-1 100 1 182 5 182 5 0
18 -3 31 -6z m142 -190 l0 -174 -30 0 -30 0 0 178 0 179 30 -5 30 -4 0 -174z
m930 6 l0 -180 -35 0 -35 0 0 180 0 180 35 0 35 0 0 -180z m-132 -7 l2 -173
-40 0 -40 0 0 169 c0 183 0 182 55 178 19 -2 20 -10 23 -174z m-678 -5 l0
-173 -32 1 c-18 0 -32 4 -30 7 1 4 2 81 2 172 l0 165 30 0 30 0 0 -172z m540
-3 l0 -175 -40 0 -40 0 0 169 0 170 33 4 c17 2 35 5 40 5 4 1 7 -77 7 -173z
m-410 -5 l0 -170 -35 0 -35 0 0 170 0 170 35 0 35 0 0 -170z m130 0 l0 -170
-35 0 -35 0 0 170 0 170 35 0 35 0 0 -170z m140 0 l0 -170 -34 0 c-19 0 -38 5
-41 10 -4 6 -3 82 1 170 l7 160 33 0 34 0 0 -170z"/>
<path d="M5121 6956 c5 -5 181 -66 190 -66 12 0 69 51 69 61 0 5 -59 9 -132 9
-72 0 -129 -2 -127 -4z"/>
<path d="M6140 6937 c-61 -41 -220 -130 -225 -126 -2 2 32 29 75 59 44 30 79
57 80 60 1 12 -256 -2 -275 -15 -11 -7 -60 -47 -108 -89 -84 -72 -91 -76 -138
-76 -27 0 -49 4 -49 9 0 5 20 44 44 87 l43 79 -31 3 c-74 8 -135 -8 -181 -48
-41 -35 -48 -38 -73 -29 -254 99 -255 99 -390 99 -136 0 -187 -9 -224 -40
l-23 -19 55 -1 c90 -1 197 -25 340 -75 74 -26 139 -51 143 -55 7 -7 -100 -20
-178 -23 -16 0 -265 3 -552 8 l-523 8 0 -36 0 -37 123 0 c67 0 325 9 572 20
412 18 635 18 635 0 0 -4 -30 -10 -68 -13 -37 -3 -99 -17 -137 -32 -63 -24
-201 -49 -674 -123 l-45 -7 80 -37 79 -37 255 64 c140 35 317 84 393 108 118
38 137 42 137 28 0 -17 -87 -48 -615 -216 l-179 -57 59 -24 c33 -12 153 -59
266 -103 l207 -81 73 10 c190 24 949 162 1051 190 31 9 37 15 40 43 3 30 8 34
100 72 l98 40 0 44 0 44 -37 -6 c-934 -136 -1543 -212 -1517 -188 23 22 217
54 994 166 289 41 599 90 690 109 91 18 204 39 253 46 l87 13 0 104 c0 56 -3
103 -6 103 -6 0 -749 -163 -823 -181 -98 -23 -41 3 136 61 261 87 297 101 283
110 -6 4 -73 8 -149 8 -127 2 -139 0 -171 -21z"/>
<path d="M8505 6908 c-4 -29 -5 -75 -3 -102 l3 -49 165 -28 c91 -15 215 -37
275 -49 61 -11 353 -52 650 -91 598 -77 872 -119 985 -149 l75 -19 -105 5
c-58 3 -172 14 -255 24 -82 10 -195 24 -250 30 -129 15 -932 118 -1001 128
l-52 9 -4 -45 c-3 -37 0 -46 17 -53 11 -4 55 -22 98 -39 59 -25 77 -36 77 -52
0 -41 19 -56 89 -72 192 -44 735 -133 1042 -171 l121 -15 246 96 c136 53 258
100 272 103 20 6 -2 16 -115 54 -133 44 -669 207 -680 207 -3 0 -5 9 -5 21 0
17 4 19 23 13 12 -4 76 -24 142 -45 66 -21 221 -62 345 -93 124 -30 238 -59
253 -65 24 -9 39 -6 109 26 44 20 77 38 72 40 -5 1 -152 25 -327 53 -227 35
-344 59 -407 80 -53 18 -108 30 -139 30 -28 0 -51 4 -51 9 0 17 229 22 490 11
146 -6 368 -15 495 -20 317 -14 285 -17 285 27 l0 36 -532 -6 c-398 -5 -552
-4 -610 5 l-77 12 92 34 c51 19 122 45 158 58 39 14 102 26 153 30 92 7 103
17 50 44 -19 9 -77 16 -174 20 l-145 5 -130 -54 c-71 -29 -137 -55 -146 -58
-16 -5 -100 33 -149 67 -25 17 -135 36 -128 22 2 -4 22 -44 46 -89 23 -46 42
-85 42 -88 0 -3 -19 -5 -41 -5 -37 0 -52 9 -148 89 l-107 88 -137 5 c-75 2
-137 3 -137 1 0 -1 30 -18 68 -37 73 -38 151 -85 141 -86 -4 0 -73 32 -155 70
l-147 71 -146 -3 c-169 -3 -168 -5 33 -64 224 -65 389 -118 378 -122 -14 -4
-172 27 -624 124 -191 41 -349 74 -352 74 -2 0 -7 -24 -11 -52z"/>
<path d="M9988 6931 c67 -57 74 -58 160 -22 42 18 86 37 97 41 12 5 -42 9
-135 9 l-155 0 33 -28z"/>
<path d="M3330 6879 c-47 -10 -188 -42 -315 -69 -363 -80 -708 -165 -712 -177
-2 -6 18 -19 44 -31 26 -11 226 -107 443 -212 815 -396 1918 -909 2615 -1215
72 -31 171 -76 220 -98 l90 -42 183 -3 182 -3 0 45 0 46 -156 0 -155 0 -97 41
c-85 36 -396 172 -787 344 -595 261 -1138 504 -1535 685 -195 89 -434 197
-530 240 -97 42 -189 84 -205 92 l-29 16 54 11 c69 13 374 69 458 83 l62 11 0
78 0 78 130 41 c71 23 132 45 135 51 8 11 8 11 -95 -12z"/>
<path d="M12025 6892 c8 -8 143 -52 268 -88 14 -5 17 -18 17 -83 l0 -77 228
-43 c332 -62 335 -62 326 -71 -5 -5 -137 -68 -294 -141 -157 -72 -382 -176
-500 -231 -118 -55 -298 -138 -400 -185 -102 -47 -248 -114 -325 -150 -167
-77 -881 -402 -1258 -572 l-268 -121 -160 0 -159 0 0 -45 0 -45 176 0 176 0
317 144 c935 426 2986 1421 2986 1449 0 7 -52 25 -130 44 -247 62 -601 142
-780 177 -99 20 -191 39 -205 42 -16 3 -21 2 -15 -4z"/>
<path d="M4197 6832 c-84 -2 -98 -5 -93 -18 3 -9 6 -19 6 -23 0 -5 143 -12
318 -16 174 -4 388 -10 475 -13 86 -4 157 -4 157 0 0 3 -60 21 -132 40 l-133
33 -250 0 c-137 0 -294 -1 -348 -3z"/>
<path d="M10495 6799 l-140 -39 190 5 c105 3 315 8 468 11 l277 7 0 23 c0 28
-12 29 -385 31 l-270 1 -140 -39z"/>
<path d="M3240 6662 l0 -129 48 -21 c492 -221 949 -410 1817 -754 264 -104
543 -213 620 -243 419 -159 487 -185 491 -185 2 0 3 71 2 157 l-3 158 -305
118 c-168 64 -510 196 -760 293 -250 97 -617 238 -815 314 -198 76 -523 201
-722 279 -199 78 -364 141 -367 141 -3 0 -6 -58 -6 -128z"/>
<path d="M12135 6756 c-49 -19 -166 -64 -260 -101 -191 -75 -517 -201 -800
-310 -104 -40 -289 -112 -410 -160 -344 -135 -765 -301 -940 -370 -88 -34
-214 -85 -280 -111 l-120 -49 -3 -167 -2 -166 492 198 c1000 401 1487 603
2053 850 154 67 299 130 323 140 l42 19 0 130 c0 72 -1 131 -2 131 -2 -1 -43
-16 -93 -34z"/>
<path d="M4475 6659 c-231 -9 -429 -18 -440 -19 -11 -1 39 -22 110 -46 l130
-45 359 52 c197 28 375 57 395 64 35 13 33 14 -49 13 -47 0 -274 -9 -505 -19z"/>
<path d="M10435 6666 c22 -8 168 -34 325 -56 458 -67 394 -65 555 -15 77 24
133 46 125 48 -17 6 -499 24 -830 32 -196 5 -212 4 -175 -9z"/>
<path d="M2280 6147 c0 -379 2 -446 15 -464 14 -21 256 -197 501 -366 l111
-76 114 -7 114 -7 160 -98 160 -98 3 345 c1 189 4 344 5 344 2 0 27 -11 55
-25 29 -14 56 -25 62 -25 6 0 10 -86 11 -237 1 -131 4 -296 8 -368 l6 -130 90
-54 c50 -30 171 -105 270 -166 152 -94 300 -184 555 -335 25 -14 259 -148 520
-298 261 -149 484 -278 495 -287 l20 -16 -20 9 c-11 6 -94 44 -185 87 -288
134 -684 352 -1115 613 l-150 91 -5 -87 c-5 -86 -5 -87 -33 -92 l-29 -5 29
-21 c125 -92 541 -359 843 -541 354 -213 805 -462 816 -450 3 2 5 325 5 718 0
583 -2 714 -13 717 -43 13 -505 215 -747 327 -502 232 -829 391 -1546 751
-782 393 -916 463 -923 482 -2 7 313 -145 699 -339 888 -444 1156 -574 1679
-816 415 -192 828 -373 852 -373 4 0 8 27 8 59 0 53 -2 60 -22 67 -56 17 -975
437 -1453 664 -543 258 -887 426 -1418 691 -285 143 -525 259 -533 259 -12 0
-14 -63 -14 -443z m301 -157 c-1 -107 -4 -196 -6 -199 -3 -2 -11 2 -20 9 -12
10 -15 45 -15 212 l0 200 21 -14 c21 -13 21 -20 20 -208z m69 -41 c0 -207 0
-209 -20 -197 -19 12 -20 24 -20 214 0 197 0 202 20 197 19 -5 20 -14 20 -214z
m72 -45 l-3 -204 -22 15 c-22 14 -22 17 -19 220 l3 205 22 -16 c22 -17 22 -21
19 -220z m51 183 c16 -11 17 -33 15 -220 l-3 -207 -22 15 c-23 16 -23 20 -23
221 0 112 4 204 8 204 5 0 16 -6 25 -13z m87 -254 l0 -215 -22 14 c-22 15 -23
22 -26 169 -2 85 0 177 3 205 5 45 9 51 26 47 18 -5 19 -16 19 -220z m63 173
c15 -12 17 -35 17 -220 0 -118 -4 -206 -9 -206 -40 0 -41 4 -41 226 0 118 3
214 8 214 4 0 15 -7 25 -14z m87 -262 c0 -212 0 -215 -20 -204 -19 10 -20 21
-20 226 0 212 0 215 20 204 19 -10 20 -21 20 -226z m61 186 c18 -10 19 -23 19
-230 0 -121 -3 -220 -7 -220 -3 0 -15 7 -25 17 -16 15 -18 35 -18 230 0 117 3
213 6 213 3 0 14 -5 25 -10z m80 -40 c18 -10 19 -23 19 -230 0 -174 -3 -220
-13 -220 -34 0 -37 22 -37 242 0 120 3 218 6 218 3 0 14 -5 25 -10z m89 -276
c0 -222 0 -225 -20 -214 -19 10 -20 21 -20 236 0 222 0 225 20 214 19 -10 20
-21 20 -236z m80 -46 c0 -226 0 -228 -20 -216 -19 12 -20 24 -20 240 0 226 0
228 20 216 19 -12 20 -24 20 -240z m71 192 c18 -10 19 -24 19 -240 l0 -230
-25 12 -25 11 0 229 c0 125 3 228 6 228 3 0 14 -5 25 -10z m292 -149 l27 -14
0 -244 c0 -229 -1 -243 -17 -234 -55 32 -53 20 -53 275 0 131 3 236 8 234 4
-2 19 -10 35 -17z m137 -316 c0 -135 -2 -245 -5 -245 -3 0 -17 7 -30 16 l-25
16 0 244 0 245 30 -16 30 -16 0 -244z m118 -64 c1 -139 -1 -251 -5 -249 -5 2
-20 10 -35 17 l-28 14 0 255 0 254 33 -19 32 -19 3 -253z m120 -64 c1 -141 0
-257 -4 -257 -3 0 -19 8 -35 17 l-29 17 0 259 0 259 33 -19 32 -19 3 -257z
m120 -71 l2 -267 -31 18 c-17 10 -34 23 -38 28 -5 6 -6 126 -3 268 l5 257 31
-18 31 -18 3 -268z m77 230 c16 -8 32 -21 36 -28 10 -15 12 -538 3 -538 -4 0
-22 9 -40 21 l-34 21 0 269 c0 148 2 269 4 269 2 0 16 -6 31 -14z m165 -363
l0 -282 -35 20 -35 21 0 279 0 279 35 -17 35 -17 0 -283z m100 232 l30 -16 0
-284 c0 -157 -3 -285 -7 -285 -5 0 -23 9 -40 20 l-33 20 0 280 c0 189 3 280
10 280 6 0 24 -7 40 -15z m134 -70 l36 -15 0 -290 c0 -160 -3 -290 -7 -290 -5
0 -23 9 -40 20 l-33 20 0 285 c0 157 2 285 4 285 2 0 20 -7 40 -15z m176 -382
c0 -161 -3 -293 -6 -293 -4 0 -24 10 -45 22 l-39 22 0 286 c0 158 2 289 6 292
3 3 23 -4 44 -16 l40 -21 0 -292z m130 222 l70 -35 0 -300 c0 -165 -3 -300 -7
-300 -4 0 -37 18 -75 40 l-68 41 0 294 c0 162 2 295 5 295 3 0 37 -16 75 -35z"/>
<path d="M12970 6494 c-1038 -536 -2032 -1024 -2955 -1451 l-150 -69 -3 -57
c-2 -38 1 -57 8 -57 24 0 401 167 745 330 61 29 144 68 185 87 178 83 1106
552 1575 795 643 334 613 319 620 309 7 -12 -324 -189 -1040 -559 -858 -443
-1600 -801 -2000 -966 l-90 -37 2 -711 c1 -391 4 -713 7 -715 5 -6 33 9 226
115 458 251 837 480 1349 816 122 79 124 81 91 86 l-33 5 2 93 c1 50 0 92 -3
92 -2 0 -96 -56 -208 -123 -191 -116 -451 -268 -598 -349 -175 -97 -648 -324
-656 -315 -2 1 45 29 104 62 581 320 1251 718 1710 1014 l112 73 0 367 0 367
45 22 c25 12 48 22 50 22 3 0 5 -162 5 -360 l0 -359 77 51 c42 28 120 77 172
109 l95 59 92 0 93 0 218 161 c120 89 248 184 284 211 36 26 71 60 77 74 9 18
12 153 12 464 0 413 -1 440 -17 440 -10 0 -101 -44 -203 -96z m-30 -487 c0
-188 -1 -203 -19 -214 -10 -7 -22 -9 -25 -6 -3 4 -6 95 -6 204 0 178 2 199 18
208 9 6 20 11 25 11 4 0 7 -91 7 -203z m-86 -258 c-10 -11 -21 -19 -26 -19 -6
0 -8 87 -6 210 3 196 4 210 23 224 20 14 20 12 23 -191 2 -181 0 -208 -14
-224z m-71 -46 c-9 -7 -20 -13 -25 -13 -4 0 -8 96 -8 213 0 212 0 214 23 224
l22 10 3 -211 c2 -189 1 -212 -15 -223z m-63 176 c0 -190 -2 -213 -17 -225
-10 -7 -21 -14 -25 -14 -5 0 -8 97 -8 215 0 193 2 215 18 224 9 6 20 11 25 11
4 0 7 -95 7 -211z m-70 -43 l0 -214 -25 -16 -25 -16 0 218 c0 220 3 242 37
242 10 0 13 -45 13 -214z m-80 -45 c0 -217 0 -220 -22 -236 l-23 -15 -3 222
c-2 201 -1 224 15 235 9 7 20 13 25 13 4 0 8 -99 8 -219z m-80 -43 c0 -192 -2
-224 -17 -240 -9 -10 -20 -18 -25 -18 -4 0 -8 103 -8 230 0 208 2 230 18 239
9 6 20 11 25 11 4 0 7 -100 7 -222z m-96 -290 c-10 -10 -21 -18 -26 -18 -4 0
-8 105 -8 233 0 233 0 234 23 244 l22 10 3 -225 c2 -199 0 -227 -14 -244z
m-64 189 l0 -234 -25 -11 -25 -12 0 235 c0 212 2 235 18 244 9 6 20 11 25 11
4 0 7 -105 7 -233z m-80 -45 l0 -239 -25 -11 -25 -12 0 239 c0 237 0 238 23
249 12 6 23 11 25 11 1 1 2 -106 2 -237z m-80 -46 l0 -234 -25 -16 -25 -16 -2
102 c-4 189 4 383 16 390 34 23 36 12 36 -226z m-259 -150 l4 -249 -37 -23
-38 -24 0 255 0 255 32 20 c18 10 33 18 34 17 1 -1 3 -114 5 -251z m-121 -66
l0 -260 -32 -20 c-18 -10 -35 -17 -38 -14 -8 9 -10 212 -4 375 l6 146 32 16
c17 9 32 16 34 16 1 1 2 -116 2 -259z m-120 -69 l0 -258 -40 -27 -40 -26 0
267 0 268 28 17 c53 32 52 38 52 -241z m-130 -76 l0 -265 -40 -25 c-22 -14
-42 -25 -45 -25 -3 0 -5 122 -5 270 l0 270 33 20 c17 11 38 20 45 20 9 0 12
-60 12 -265z m-140 -83 l0 -278 -35 -17 c-20 -9 -38 -17 -40 -17 -3 0 -5 125
-5 278 l0 278 33 17 c17 8 35 16 40 16 4 1 7 -124 7 -277z m-130 -74 l0 -283
-40 -23 -40 -23 0 289 0 288 33 17 c17 8 35 16 40 16 4 1 7 -126 7 -281z
m-139 145 c1 -38 3 -165 5 -285 l3 -216 -39 -26 c-22 -14 -42 -26 -45 -26 -3
0 -5 132 -5 293 l0 293 33 17 c17 8 35 16 40 16 4 1 7 -29 8 -66z m-131 -295
l0 -293 -41 -23 c-22 -13 -42 -22 -44 -20 -4 4 -7 248 -6 445 l1 143 38 19
c20 11 40 20 45 21 4 0 7 -132 7 -292z m-150 -77 l0 -298 -40 -27 c-22 -14
-42 -26 -45 -26 -3 0 -5 136 -5 303 l0 303 43 21 c23 12 43 22 45 22 1 1 2
-133 2 -298z m-150 -86 l0 -304 -69 -41 c-38 -22 -72 -40 -75 -40 -4 0 -5 138
-4 306 l3 307 65 37 c36 21 68 39 73 39 4 1 7 -136 7 -304z"/>
<path d="M8853 6544 c-23 -12 -78 -29 -122 -39 l-81 -19 0 -53 0 -53 88 0 c85
0 224 29 247 51 14 14 -38 11 -76 -5 -19 -7 -50 -16 -69 -20 l-35 -6 43 20
c50 23 54 31 50 96 l-3 49 -42 -21z"/>
<path d="M6482 6503 c3 -56 4 -59 41 -76 55 -25 45 -29 -20 -6 -59 20 -93 24
-93 11 0 -17 168 -52 254 -52 l86 0 0 50 c0 55 10 49 -130 80 -30 7 -72 21
-92 31 -21 11 -40 19 -43 19 -3 0 -5 -26 -3 -57z"/>
<path d="M6802 6429 l3 -54 895 1 895 1 3 53 3 53 -48 -6 c-209 -27 -324 -32
-858 -32 -531 0 -691 6 -858 31 l-38 6 3 -53z"/>
<path d="M6290 6303 l5 -107 145 -38 c80 -20 146 -37 148 -38 1 0 2 50 2 110
0 99 -2 110 -18 110 -9 0 -71 16 -136 35 -66 19 -126 35 -135 35 -14 0 -15
-14 -11 -107z"/>
<path d="M8941 6371 l-125 -38 3 -104 c1 -57 4 -105 4 -106 7 -6 243 69 256
82 12 12 16 39 18 110 2 84 0 95 -15 94 -9 0 -73 -18 -141 -38z"/>
<path d="M6650 6225 l0 -115 1060 0 1060 0 0 115 0 115 -1060 0 -1060 0 0
-115z"/>
<path d="M6225 6160 c-3 -5 -4 -14 -1 -19 9 -14 352 -95 372 -87 33 13 -1 26
-180 71 -202 51 -183 48 -191 35z"/>
<path d="M9107 6163 c-4 -4 -72 -23 -150 -43 -101 -26 -143 -41 -145 -52 -3
-14 8 -13 89 4 183 40 254 62 254 78 0 16 -36 26 -48 13z"/>
<path d="M6650 6060 c0 -20 5 -20 1057 -18 998 3 1058 4 1061 21 3 16 -52 17
-1057 17 -1055 0 -1061 0 -1061 -20z"/>
<path d="M6545 5966 c-346 -107 -511 -156 -524 -156 -29 0 4 -17 63 -33 l58
-16 344 115 343 114 913 -2 913 -3 290 -93 c160 -51 316 -103 348 -114 56 -20
59 -21 125 -3 82 22 94 31 49 39 -40 7 -494 135 -610 172 l-78 24 -1047 0
-1047 -1 -140 -43z"/>
<path d="M7605 5888 c-13 -19 -25 -23 -73 -23 -57 0 -57 0 -60 -32 -3 -30 -6
-32 -44 -35 -49 -4 -70 -27 -50 -58 17 -27 16 -30 -12 -30 -13 0 -31 -3 -40
-6 -18 -7 -21 -39 -5 -50 8 -5 6 -10 -5 -16 -9 -5 -16 -13 -16 -18 0 -6 148
-10 385 -10 l385 0 0 28 c0 24 -7 32 -39 46 -37 17 -38 19 -27 48 9 26 8 32
-8 44 -11 8 -39 14 -63 14 -41 0 -42 1 -33 25 8 20 6 29 -10 45 -23 23 -37 24
-76 10 -22 -9 -31 -7 -49 10 -24 22 -55 26 -72 9 -8 -8 -17 -7 -34 5 -30 21
-35 20 -54 -6z"/>
<path d="M6886 5878 c-13 -18 -24 -22 -60 -19 -37 2 -47 -1 -56 -19 -6 -11 -8
-29 -5 -40 5 -17 0 -19 -47 -22 -47 -3 -53 -6 -56 -26 -2 -13 1 -29 7 -36 9
-11 2 -16 -34 -25 -44 -11 -46 -13 -43 -44 l3 -32 311 -3 311 -2 -1 42 c-1 36
-4 43 -23 46 -17 2 -21 9 -20 30 1 19 -4 30 -20 37 -14 6 -23 20 -25 40 -3 28
-6 30 -45 31 -31 0 -47 7 -61 24 -16 20 -21 21 -41 10 -20 -10 -26 -9 -45 9
-28 26 -31 26 -50 -1z"/>
<path d="M8459 5881 c-17 -13 -30 -17 -40 -10 -23 14 -39 10 -48 -13 -6 -17
-16 -22 -52 -22 -41 -1 -44 -3 -47 -29 -2 -19 -11 -31 -29 -38 -22 -8 -25 -14
-19 -39 5 -27 3 -30 -20 -30 -28 0 -42 -24 -25 -43 8 -10 7 -17 -1 -25 -9 -9
63 -12 310 -12 289 0 323 2 329 16 10 25 -10 48 -50 57 -33 8 -35 10 -25 33
17 36 -4 54 -63 54 l-49 0 0 35 c0 29 -4 36 -25 41 -14 3 -35 4 -47 0 -16 -4
-31 2 -49 20 l-26 25 -24 -20z"/>
<path d="M9195 5610 c-46 -17 -51 -22 -57 -57 -4 -21 -7 -97 -7 -170 l-1 -132
60 22 60 22 0 168 c0 92 -1 167 -2 166 -2 0 -25 -9 -53 -19z"/>
<path d="M6273 5590 c4 -18 7 -90 7 -160 l0 -128 62 -21 c34 -12 66 -21 70
-21 10 0 10 90 2 221 l-7 96 -56 18 c-31 10 -62 20 -70 23 -11 4 -13 -2 -8
-28z"/>
<path d="M8386 5553 c-4 -5 -429 -10 -944 -13 l-937 -5 -3 -142 -3 -143 704 0
c387 0 961 3 1275 7 l572 6 0 149 0 148 -328 0 c-181 0 -332 -3 -336 -7z"/>
<path d="M2956 5203 l-99 -4 419 -281 c474 -318 403 -286 608 -272 73 5 86 9
75 19 -14 13 -197 129 -647 412 -130 81 -221 132 -235 131 -12 -1 -67 -4 -121
-5z"/>
<path d="M12339 5157 c-46 -29 -219 -141 -384 -248 -165 -108 -317 -206 -338
-218 -21 -13 -36 -25 -33 -28 2 -3 64 -9 137 -13 l133 -8 95 67 c53 37 218
150 366 251 149 101 287 196 307 210 l38 27 -77 7 c-146 12 -152 11 -244 -47z"/>
<path d="M2800 5121 l0 -59 108 -78 c59 -42 124 -90 144 -105 20 -16 39 -29
42 -29 3 0 6 29 6 64 l0 65 -150 101 -150 101 0 -60z"/>
<path d="M8239 5166 c-2 -2 -353 -6 -779 -8 -426 -1 -824 -4 -883 -6 l-108 -3
3 -37 3 -37 420 -2 c231 0 824 1 1318 5 l897 5 0 44 0 43 -433 0 c-239 0 -436
-2 -438 -4z"/>
<path d="M12572 5078 l-132 -92 0 -64 0 -64 27 17 c15 10 78 56 140 102 l113
84 0 55 c0 30 -3 54 -8 54 -4 0 -67 -41 -140 -92z"/>
<path d="M6150 4335 l0 -765 95 0 95 0 0 765 0 765 -95 0 -95 0 0 -765z"/>
<path d="M9258 4398 c-2 -387 -1 -731 0 -765 l4 -63 89 0 89 0 0 765 0 765
-90 0 -89 0 -3 -702z"/>
<path d="M6414 4997 c-3 -8 -3 -56 -2 -108 l3 -94 1388 -3 1387 -2 0 110 0
110 -1385 0 c-1141 0 -1387 -2 -1391 -13z"/>
<path d="M5800 4195 l0 -755 140 0 140 0 0 755 0 755 -140 0 -140 0 0 -755z"/>
<path d="M9519 4928 c0 -13 -1 -351 -1 -753 l-1 -730 142 -3 141 -3 0 756 0
755 -140 0 c-138 0 -140 0 -141 -22z"/>
<path d="M3150 4873 l0 -68 250 -180 c137 -99 254 -181 260 -183 6 -2 10 26
10 77 l0 82 -247 163 c-137 89 -254 166 -260 170 -10 5 -13 -9 -13 -61z"/>
<path d="M12127 4773 l-247 -166 0 -85 c0 -66 3 -82 13 -75 24 20 403 300 450
333 l47 33 0 64 c0 35 -4 63 -8 63 -5 0 -119 -75 -255 -167z"/>
<path d="M6417 4753 c-4 -3 -7 -190 -7 -415 l0 -408 435 0 435 0 0 375 0 375
528 0 529 0 6 -107 c4 -58 7 -227 7 -375 l0 -268 420 0 420 0 0 415 0 415
-1383 0 c-761 0 -1387 -3 -1390 -7z m238 -418 l0 -330 -45 0 -45 0 -3 270 c-2
149 0 298 3 333 l7 63 41 -3 42 -3 0 -330z m170 0 l0 -330 -47 -3 -48 -3 0
336 0 336 48 -3 47 -3 0 -330z m165 0 l0 -335 -45 0 -45 0 0 335 0 335 45 0
45 0 0 -335z m160 -1 l0 -335 -42 3 -43 3 -3 333 -2 332 45 0 45 0 0 -336z
m1425 1 l0 -330 -47 -3 -48 -3 0 329 c0 181 3 332 7 336 4 4 25 6 48 4 l40 -3
0 -330z m165 -1 l0 -335 -47 3 -48 3 0 235 c0 129 1 279 3 333 l4 97 44 0 44
0 0 -336z m165 1 l0 -330 -47 -3 -48 -3 0 336 0 336 48 -3 47 -3 0 -330z m165
0 l0 -335 -45 0 -45 0 0 335 0 335 45 0 45 0 0 -335z"/>
<path d="M7346 4508 c-4 -68 -5 -199 -2 -293 2 -93 5 -189 5 -212 l1 -41 80 0
80 1 0 259 0 258 300 0 300 0 0 -255 0 -255 85 0 85 0 0 330 0 330 -464 0
-464 0 -6 -122z"/>
<path d="M3890 4603 c-25 -1 -73 -5 -107 -9 l-63 -6 0 -75 0 -75 53 6 c28 3
86 8 127 11 127 10 120 5 120 85 l0 70 -42 -2 c-24 -1 -63 -3 -88 -5z"/>
<path d="M11550 4541 c0 -39 1 -71 3 -72 17 -4 280 -23 283 -20 2 2 4 37 4 78
l0 73 -53 0 c-30 0 -95 3 -145 6 l-92 7 0 -72z"/>
<path d="M7765 4385 c-48 -17 -71 -43 -85 -96 -14 -52 14 -120 59 -143 44 -23
112 -21 145 5 122 96 27 284 -119 234z"/>
<path d="M8347 3852 c-3 -31 6 -84 34 -185 21 -78 39 -157 39 -174 l0 -33 383
0 384 0 6 98 c4 53 7 150 7 215 l0 117 -382 1 c-211 1 -402 2 -424 3 l-42 1
-5 -43z m243 -182 l0 -130 -55 0 -55 0 0 130 0 130 55 0 55 0 0 -130z m190 0
l0 -130 -59 0 -58 0 2 108 c3 169 -3 152 60 152 l55 0 0 -130z m180 0 l0 -130
-55 0 -55 0 0 130 0 130 55 0 55 0 0 -130z m140 0 l0 -130 -40 0 -40 0 0 130
0 130 40 0 40 0 0 -130z"/>
<path d="M6420 3675 l0 -215 393 2 392 3 7 55 c3 30 20 110 37 178 17 68 31
139 31 158 l0 34 -430 0 -430 0 0 -215z m180 -5 l0 -130 -40 0 -40 0 0 130 0
130 40 0 40 0 0 -130z m180 0 l0 -130 -60 0 -60 0 0 123 c0 68 3 127 7 130 3
4 30 7 60 7 l53 0 0 -130z m190 2 c0 -71 -2 -131 -4 -133 -2 -2 -29 -2 -60 -1
l-56 4 0 129 0 129 60 0 60 0 0 -128z m180 -2 l0 -130 -60 0 -60 0 0 123 c0
68 3 127 7 130 3 4 30 7 60 7 l53 0 0 -130z"/>
<path d="M7305 3728 c-21 -84 -40 -159 -42 -165 -4 -10 109 -13 547 -13 520 0
551 1 546 18 -3 9 -22 83 -42 165 l-36 147 -468 0 -468 0 -37 -152z"/>
<path d="M7254 3488 c3 -13 6 -29 6 -35 0 -10 118 -13 555 -13 l555 0 0 35 0
35 -561 0 -561 0 6 -22z"/>
<path d="M7093 3343 l24 -38 710 -3 709 -2 23 40 22 40 -756 0 -755 0 23 -37z"/>
<path d="M7169 3242 l-57 -3 -1 -119 -2 -120 241 0 241 0 -3 120 -3 121 -180
2 c-99 1 -205 1 -236 -1z"/>
<path d="M8020 3124 l0 -124 265 0 265 0 0 120 0 120 -47 0 c-27 1 -146 3
-265 5 l-218 4 0 -125z"/>
<path d="M7620 3020 c0 -19 7 -20 180 -20 173 0 180 1 180 20 0 19 -7 20 -180
20 -173 0 -180 -1 -180 -20z"/>
<path d="M10540 2496 c0 -143 -1 -148 -18 -133 -31 28 -89 47 -145 47 -181 0
-282 -212 -193 -405 55 -121 215 -161 323 -79 l32 24 3 -23 c3 -20 9 -22 71
-25 l67 -3 0 376 0 376 -70 -3 -70 -3 0 -149z m-60 -211 c47 -24 63 -66 58
-153 -3 -69 -6 -76 -35 -103 -62 -55 -147 -45 -188 24 -25 41 -26 138 -2 184
31 58 106 80 167 48z"/>
<path d="M4933 2606 c-165 -54 -250 -190 -241 -385 7 -151 73 -253 204 -313
42 -20 66 -23 160 -23 107 0 113 1 180 35 111 57 170 153 181 296 13 167 -67
315 -205 377 -59 26 -215 34 -279 13z m212 -135 c81 -38 118 -105 118 -221 1
-115 -36 -183 -118 -221 -97 -45 -221 -8 -269 80 -51 95 -42 237 21 312 55 65
166 88 248 50z"/>
<path d="M7540 2610 c-61 -13 -119 -56 -148 -110 -19 -37 -23 -56 -20 -106 6
-100 59 -151 208 -199 76 -24 126 -51 134 -70 32 -85 -51 -143 -168 -116 -28
6 -70 21 -94 33 -24 11 -44 19 -46 17 -1 -2 -14 -26 -29 -52 l-26 -48 32 -20
c63 -39 162 -62 245 -57 139 9 213 63 233 171 24 132 -41 211 -216 262 -116
33 -149 66 -126 124 25 59 141 73 233 28 l49 -24 24 48 c14 27 25 52 25 57 0
5 -27 21 -61 36 -68 31 -173 42 -249 26z"/>
<path d="M5746 2390 c-22 -11 -47 -27 -57 -36 -16 -14 -18 -13 -24 15 -6 30
-8 31 -66 31 l-59 0 0 -370 0 -371 68 3 67 3 3 138 3 138 42 -25 c115 -68 255
-28 312 88 72 147 24 331 -100 387 -53 25 -139 24 -189 -1z m121 -110 c38 -23
51 -46 59 -102 14 -103 -39 -178 -125 -178 -54 0 -84 18 -108 63 -21 41 -20
134 1 175 31 60 112 80 173 42z"/>
<path d="M6340 2401 c-76 -23 -148 -89 -171 -157 -19 -56 -17 -151 4 -206 20
-52 79 -111 136 -136 56 -25 201 -21 274 7 31 12 57 24 57 26 0 2 -9 24 -20
50 -22 51 -19 50 -95 21 -107 -41 -208 -2 -231 88 l-6 26 187 0 188 0 -5 64
c-9 109 -69 190 -159 216 -39 12 -123 12 -159 1z m148 -108 c13 -8 27 -25 32
-39 21 -53 19 -54 -110 -54 -66 0 -120 2 -120 5 0 21 32 76 51 86 57 30 101
31 147 2z"/>
<path d="M6985 2393 c-16 -8 -42 -27 -57 -41 -27 -25 -28 -25 -28 -5 0 46 -9
53 -71 53 l-59 0 0 -250 0 -250 64 0 64 0 4 153 c3 138 5 155 26 189 32 51 87
69 138 45 19 -9 39 -28 44 -43 6 -14 10 -97 10 -185 l0 -159 70 0 70 0 0 168
c0 189 -12 251 -57 294 -16 15 -41 32 -56 37 -41 16 -127 13 -162 -6z"/>
<path d="M8072 2394 c-63 -16 -92 -31 -92 -45 0 -5 9 -28 20 -50 l21 -39 31
16 c41 21 148 30 176 15 20 -11 49 -77 38 -88 -3 -3 -46 -9 -96 -14 -100 -8
-171 -36 -203 -80 -26 -36 -27 -121 -1 -156 41 -54 70 -68 142 -67 68 0 100
11 138 46 21 19 22 19 28 -6 6 -24 10 -26 66 -26 l60 0 0 168 c0 235 -18 287
-112 327 -46 19 -145 19 -216 -1z m191 -301 c6 -33 -14 -75 -45 -97 -32 -23
-94 -20 -118 4 -53 53 7 119 111 120 43 0 47 -2 52 -27z"/>
<path d="M8755 2397 c-16 -8 -45 -26 -62 -41 l-33 -28 0 36 0 36 -65 0 -65 0
0 -250 0 -250 70 0 70 0 0 145 c0 103 4 156 14 180 30 71 126 95 172 42 23
-27 24 -33 24 -198 l0 -169 71 0 71 0 -4 198 c-3 216 -9 240 -71 286 -35 26
-147 33 -192 13z"/>
<path d="M9237 2396 c-77 -28 -112 -82 -104 -160 4 -43 10 -55 41 -82 22 -19
62 -39 99 -49 96 -27 119 -41 115 -73 -6 -55 -103 -65 -190 -21 -22 11 -41 19
-42 17 -15 -23 -37 -89 -32 -96 23 -38 213 -60 289 -33 85 29 129 101 108 178
-17 59 -56 91 -148 119 -78 24 -113 44 -113 65 0 5 10 19 21 30 18 18 29 21
75 16 30 -3 68 -12 84 -21 l31 -15 22 45 c25 52 23 55 -57 79 -61 18 -148 19
-199 1z"/>
<path d="M9708 2387 c-37 -13 -70 -26 -73 -29 -3 -3 3 -26 14 -51 l20 -46 50
20 c65 24 141 25 170 2 11 -10 24 -32 27 -50 l6 -31 -68 -7 c-162 -16 -242
-62 -251 -146 -7 -59 17 -111 65 -141 51 -32 142 -31 200 2 23 13 42 28 42 32
0 5 5 6 10 3 6 -3 10 -15 10 -26 0 -17 7 -19 61 -19 l61 0 -4 193 c-3 192 -3
194 -30 235 -37 56 -77 75 -168 79 -60 3 -89 -1 -142 -20z m204 -312 c-5 -57
-45 -95 -99 -95 -68 0 -98 64 -50 107 26 24 45 30 107 32 l45 1 -3 -45z"/>
</g>
</svg>
